<svg xlink="http://www.w3.org/1999/xlink" viewBox="0 0 5000 5000" xmlns="http://www.w3.org/2000/svg" style="transform: scale(1);"><defs><filter id="goo"><feGaussianBlur in="SourceGraphic" stdDeviation="14.7" result="blur"></feGaussianBlur><feColorMatrix in="blur" type="matrix" values="1 0 0 0 0 0 1 0 0 0 0 0 1 0 0 0 0 0 19 -9" result="good"></feColorMatrix><feComposite in="SourceGraphic" in2="goo" operator="atop"></feComposite></filter><path d="M250,279C246,279 243,279 238,276L248,221L273,233Q288,271 250,279z" id="P0"></path><path d="M251,272Q231,277 230,258L253,228L265,234C275,248 269,266 251,272z" id="P1"></path><path d="M239,217C261,233 270,247 277,272C270,281 259,286 246,285C239,265 233,258 215,248Q208,219 239,217z" id="P2"></path><path d="M263,299C240,304 218,294 207,277C196,257 198,233 211,217C227,201 250,195 269,203C290,213 302,233 301,253C298,276 282,294 263,299z" id="P3"></path><path d="M287,328L164,245L301,180L287,328z" id="P4"></path><path d="M227,160C269,152 284,203 299,227C302,233 378,226 377,234C380,292 342,336 300,357C273,371 246,312 231,307C224,305 143,418 117,392C79,359 126,290 125,250C127,201 148,154 201,127C209,123 227,159 227,160z" id="P5"></path><path d="M303,154L346,197L270,357L149,290L303,154z" id="P6"></path><path d="M360,250L250,360C193,354 150,314 140,250C146,193 186,150 250,140C279,198 300,218 360,250z" id="P7"></path><path d="M229,265Q217,229 256,225L275,258C268,272 254,278 239,274C242,261 240,259 229,265z" id="P8"></path><path d="M287,262Q235,307 211,245C213,233 220,222 231,216L289,252L287,262z" id="P9"></path><path d="M264,235C273,247 270,262 258,270L230,256C228,249 230,241 235,236C246,239 252,239 264,235z" id="P10"></path><path d="M310,274C298,301 271,316 246,315C216,311 194,291 187,266C182,237 194,209 215,195C241,181 271,184 291,200C313,220 320,250 310,274z" id="P11"></path><path d="M323,296L175,291L255,164L323,296z" id="P12"></path><path d="M294,189C314,204 366,212 366,243C368,257 364,272 356,292C338,333 338,438 275,444C237,451 222,358 198,345C162,323 73,308 74,250C72,228 108,213 116,197C139,146 161,61 238,53C288,49 283,179 294,189z" id="P13"></path><path d="M262,153L336,203L220,343L174,312L262,153z" id="P14"></path><path d="M272,133C332,151 369,203 367,272Q355,394 228,367C168,349 131,297 133,228C200,209 226,190 272,133z" id="P15"></path><path d="M277,247L257,276C248,278 240,276 233,271Q210,247 237,226C254,221 270,228 277,247z" id="P16"></path><path d="M269,243L249,270C233,264 228,247 237,235C247,228 259,230 267,239Q276,236 269,243z" id="P17"></path><path d="M255,269C249,261 245,259 235,264C227,249 236,233 251,230L269,245C271,255 266,265 255,269z" id="P18"></path><path d="M176,264C172,230 188,199 214,184C245,170 280,175 301,195C325,220 330,255 318,282C301,312 270,328 241,324C207,318 182,293 176,264z" id="P19"></path><path d="M114,395L189,61L443,299L114,395z" id="P20"></path><path d="M228,305C211,298 125,329 113,285C110,277 122,266 123,266C120,208 155,161 212,134C227,128 242,122 250,124C299,126 366,126 395,182C410,209 395,241 391,259C382,323 348,385 289,401C260,410 242,310 228,305z" id="P21"></path><path d="M210,166L309,178L279,338L210,334L210,166z" id="P22"></path><path d="M85,303Q15,140 197,85C268,158 310,178 415,197C434,285 394,369 303,415C232,342 190,322 85,303z" id="P23"></path><path d="M245,214Q284,208 286,248C268,251 268,253 283,263C262,265 254,269 239,284C212,265 214,230 245,214z" id="P24"></path><path d="M278,246L278,254C266,278 236,279 222,254Q212,232 237,225Q268,212 278,246z" id="P25"></path><path d="M235,226C252,219 270,226 278,245C265,251 264,254 275,263C266,276 252,280 237,275C236,256 235,245 235,226z" id="P26"></path><path d="M234,311C207,302 189,279 187,254C187,225 204,201 227,191C254,183 282,191 299,210C315,233 316,263 303,284C286,307 258,317 234,311z" id="P27"></path><path d="M187,326L214,158L347,269L187,326z" id="P28"></path><path d="M391,339C375,368 360,401 317,418C306,424 268,318 263,319C236,323 214,307 196,284C183,263 44,211 76,155C87,131 166,171 178,163C206,140 244,148 268,155C287,157 312,152 327,168C362,205 428,261 391,339z" id="P29"></path><path d="M195,82L272,74L294,421L272,426L195,82z" id="P30"></path><path d="M200,356L144,200Q185,87 300,144C352,176 375,234 356,300C287,301 258,313 200,356z" id="P31"></path><path d="M228,259Q214,245 230,237Q241,215 263,230C277,247 270,269 250,274C245,262 241,259 228,259z" id="P32"></path><path d="M221,266C232,249 235,239 238,219Q259,201 273,226C269,252 259,267 234,279Q214,284 221,266z" id="P33"></path><path d="M226,227C251,231 265,239 282,256C282,260 280,264 277,269C251,269 236,263 217,246C234,245 235,242 226,227z" id="P34"></path><path d="M198,250C200,226 215,207 234,201C257,195 280,203 292,219C305,240 304,264 292,281C277,299 253,306 234,299C212,291 198,270 198,250z" id="P35"></path><path d="M366,346L111,305L278,103L366,346z" id="P36"></path><path d="M337,387C292,415 243,359 206,344C170,325 82,316 80,261C78,250 85,240 86,240C96,165 166,135 217,121C241,113 272,74 293,83C357,103 407,151 422,217C432,273 404,322 368,361C362,369 354,376 337,387z" id="P37"></path><path d="M173,332L145,292L327,168L352,202L173,332z" id="P38"></path><path d="M365,257C302,283 280,304 243,365C183,355 141,310 135,243C145,183 190,141 257,135C283,198 304,220 365,257z" id="P39"></path><path d="M227,274Q208,277 218,256L258,218L282,256Q268,296 227,274z" id="P40"></path><path d="M238,225C264,221 281,242 272,268C258,262 254,264 246,278C236,276 227,269 223,259L238,225z" id="P41"></path><path d="M210,255L235,213C258,229 270,240 288,262C276,286 250,294 229,284Q197,279 210,255z" id="P42"></path><path d="M324,274C311,307 281,328 250,328C214,326 186,303 176,274C167,240 180,205 204,187C234,168 271,169 296,187C323,210 333,245 324,274z" id="P43"></path><path d="M124,226L332,151L290,372L124,226z" id="P44"></path><path d="M260,93C331,103 391,147 410,219C413,229 436,238 435,250C435,310 359,329 319,358C275,383 214,440 152,404C112,380 193,282 190,269C184,250 88,197 113,163C135,127 193,146 222,140C235,135 250,90 260,93z" id="P45"></path><path d="M172,84L376,116L349,405L108,367L172,84z" id="P46"></path><path d="M231,400C154,382 102,319 100,231C118,154 181,102 269,100C346,118 398,181 400,269C382,346 319,398 231,400z" id="P47"></path><path d="M243,221L279,256L241,279L227,231L243,221z" id="P48"></path><path d="M270,253C266,265 254,272 240,268C236,265 232,261 231,257C229,243 238,231 253,230Q273,231 270,253z" id="P49"></path><path d="M266,265C256,260 254,261 250,272C231,266 225,245 238,231C249,226 260,229 269,238C273,247 272,257 266,265z" id="P50"></path><path d="M326,231C332,266 318,299 292,316C260,333 224,329 200,310C174,286 167,250 177,221C193,189 224,171 255,172C290,177 318,201 326,231z" id="P51"></path><path d="M205,388L151,144L392,223L205,388z" id="P52"></path><path d="M217,75C250,67 275,119 290,127C322,137 384,124 399,155C425,193 326,245 321,268C315,291 355,377 299,399C280,407 261,431 239,428C181,424 180,335 161,306C146,284 110,259 119,216C134,166 149,91 217,75z" id="P53"></path><path d="M358,399L238,434L193,75L307,75L358,399z" id="P54"></path><path d="M194,148Q293,81 352,194Q419,293 306,352Q207,419 148,306Q81,207 194,148z" id="P55"></path></defs><rect id="RECT" width="5000" height="5000" fill="#111"></rect><g id="group" fill="#FFF" filter="url(#goo)"><use x="-184" y="-250" href="#P30"></use><use x="-99" y="-38" href="#P7"></use><use x="-150" y="263" href="#P48"></use><use x="-247" y="371" href="#P8"></use><use x="-80" y="616" href="#P37"></use><use x="-111" y="687" href="#P52"></use><use x="-211" y="860" href="#P21"></use><use x="-66" y="1125" href="#P21"></use><use x="-162" y="1278" href="#P5"></use><use x="-87" y="1546" href="#P49"></use><use x="-90" y="1662" href="#P15"></use><use x="-156" y="1789" href="#P17"></use><use x="-102" y="2008" href="#P28"></use><use x="-156" y="2287" href="#P45"></use><use x="-96" y="2322" href="#P5"></use><use x="-124" y="2534" href="#P4"></use><use x="-231" y="2808" href="#P43"></use><use x="-117" y="2991" href="#P41"></use><use x="-186" y="3212" href="#P33"></use><use x="-125" y="3412" href="#P13"></use><use x="-176" y="3593" href="#P55"></use><use x="-203" y="3620" href="#P31"></use><use x="-130" y="3802" href="#P4"></use><use x="-212" y="3982" href="#P50"></use><use x="-106" y="4274" href="#P8"></use><use x="-134" y="4483" href="#P13"></use><use x="-107" y="4566" href="#P7"></use><use x="-134" y="4725" href="#P7"></use><use x="-243" y="5038" href="#P54"></use><use x="-246" y="5132" href="#P1"></use><use x="-14" y="-236" href="#P49"></use><use x="47" y="51" href="#P29"></use><use x="1" y="127" href="#P31"></use><use x="92" y="403" href="#P48"></use><use x="-19" y="503" href="#P26"></use><use x="-29" y="676" href="#P12"></use><use x="-31" y="992" href="#P51"></use><use x="36" y="1164" href="#P25"></use><use x="116" y="1389" href="#P12"></use><use x="-47" y="1439" href="#P12"></use><use x="-41" y="1727" href="#P29"></use><use x="74" y="1878" href="#P15"></use><use x="105" y="1983" href="#P0"></use><use x="58" y="2149" href="#P16"></use><use x="110" y="2342" href="#P55"></use><use x="85" y="2515" href="#P0"></use><use x="43" y="2825" href="#P22"></use><use x="61" y="2943" href="#P53"></use><use x="-4" y="3128" href="#P21"></use><use x="72" y="3367" href="#P39"></use><use x="-45" y="3477" href="#P15"></use><use x="23" y="3752" href="#P32"></use><use x="19" y="3952" href="#P19"></use><use x="90" y="4031" href="#P40"></use><use x="106" y="4183" href="#P1"></use><use x="-24" y="4415" href="#P2"></use><use x="9" y="4565" href="#P49"></use><use x="-14" y="4702" href="#P14"></use><use x="44" y="4890" href="#P14"></use><use x="-19" y="5181" href="#P18"></use><use x="201" y="-102" href="#P15"></use><use x="200" y="103" href="#P33"></use><use x="126" y="277" href="#P42"></use><use x="246" y="369" href="#P40"></use><use x="270" y="563" href="#P40"></use><use x="93" y="659" href="#P33"></use><use x="203" y="891" href="#P32"></use><use x="240" y="1143" href="#P24"></use><use x="295" y="1233" href="#P34"></use><use x="180" y="1425" href="#P33"></use><use x="248" y="1670" href="#P29"></use><use x="281" y="1785" href="#P4"></use><use x="177" y="2090" href="#P13"></use><use x="260" y="2229" href="#P35"></use><use x="159" y="2500" href="#P32"></use><use x="170" y="2582" href="#P35"></use><use x="247" y="2720" href="#P34"></use><use x="192" y="2996" href="#P52"></use><use x="172" y="3084" href="#P49"></use><use x="161" y="3307" href="#P44"></use><use x="236" y="3495" href="#P47"></use><use x="219" y="3697" href="#P30"></use><use x="246" y="3839" href="#P37"></use><use x="136" y="4057" href="#P7"></use><use x="282" y="4218" href="#P20"></use><use x="280" y="4459" href="#P35"></use><use x="156" y="4636" href="#P43"></use><use x="236" y="4734" href="#P43"></use><use x="253" y="4890" href="#P29"></use><use x="290" y="5184" href="#P52"></use><use x="412" y="-160" href="#P53"></use><use x="430" y="94" href="#P2"></use><use x="423" y="101" href="#P21"></use><use x="368" y="445" href="#P39"></use><use x="330" y="546" href="#P3"></use><use x="338" y="798" href="#P32"></use><use x="502" y="1036" href="#P5"></use><use x="414" y="1141" href="#P30"></use><use x="464" y="1342" href="#P38"></use><use x="328" y="1575" href="#P28"></use><use x="314" y="1748" href="#P25"></use><use x="348" y="1929" href="#P34"></use><use x="453" y="2007" href="#P28"></use><use x="402" y="2227" href="#P36"></use><use x="365" y="2404" href="#P47"></use><use x="427" y="2545" href="#P15"></use><use x="422" y="2717" href="#P1"></use><use x="432" y="2986" href="#P22"></use><use x="439" y="3209" href="#P51"></use><use x="318" y="3270" href="#P37"></use><use x="474" y="3566" href="#P43"></use><use x="464" y="3780" href="#P39"></use><use x="429" y="3865" href="#P34"></use><use x="405" y="4072" href="#P31"></use><use x="306" y="4317" href="#P12"></use><use x="417" y="4440" href="#P38"></use><use x="413" y="4589" href="#P5"></use><use x="441" y="4867" href="#P45"></use><use x="456" y="5059" href="#P46"></use><use x="435" y="5084" href="#P18"></use><use x="637" y="-144" href="#P34"></use><use x="489" y="3" href="#P10"></use><use x="553" y="110" href="#P1"></use><use x="542" y="477" href="#P32"></use><use x="543" y="590" href="#P19"></use><use x="667" y="694" href="#P40"></use><use x="624" y="993" href="#P35"></use><use x="648" y="1087" href="#P41"></use><use x="500" y="1261" href="#P14"></use><use x="475" y="1467" href="#P17"></use><use x="619" y="1702" href="#P29"></use><use x="491" y="1864" href="#P54"></use><use x="543" y="1989" href="#P35"></use><use x="645" y="2248" href="#P13"></use><use x="632" y="2413" href="#P48"></use><use x="597" y="2510" href="#P34"></use><use x="487" y="2815" href="#P11"></use><use x="600" y="2905" href="#P21"></use><use x="573" y="3164" href="#P15"></use><use x="528" y="3306" href="#P50"></use><use x="506" y="3578" href="#P50"></use><use x="483" y="3684" href="#P44"></use><use x="592" y="3865" href="#P7"></use><use x="643" y="4031" href="#P32"></use><use x="527" y="4207" href="#P27"></use><use x="544" y="4319" href="#P38"></use><use x="629" y="4524" href="#P28"></use><use x="531" y="4806" href="#P23"></use><use x="599" y="5041" href="#P39"></use><use x="544" y="5126" href="#P47"></use><use x="775" y="-162" href="#P43"></use><use x="788" y="58" href="#P16"></use><use x="753" y="213" href="#P12"></use><use x="800" y="376" href="#P22"></use><use x="863" y="527" href="#P18"></use><use x="708" y="831" href="#P11"></use><use x="721" y="884" href="#P8"></use><use x="721" y="1099" href="#P47"></use><use x="673" y="1216" href="#P0"></use><use x="770" y="1576" href="#P50"></use><use x="698" y="1716" href="#P50"></use><use x="775" y="1810" href="#P42"></use><use x="798" y="2087" href="#P44"></use><use x="666" y="2133" href="#P26"></use><use x="780" y="2322" href="#P8"></use><use x="678" y="2626" href="#P0"></use><use x="827" y="2752" href="#P51"></use><use x="798" y="3039" href="#P52"></use><use x="838" y="3124" href="#P36"></use><use x="765" y="3233" href="#P43"></use><use x="777" y="3599" href="#P18"></use><use x="765" y="3648" href="#P29"></use><use x="744" y="3871" href="#P48"></use><use x="787" y="4102" href="#P19"></use><use x="763" y="4200" href="#P26"></use><use x="834" y="4329" href="#P6"></use><use x="866" y="4530" href="#P23"></use><use x="724" y="4833" href="#P41"></use><use x="718" y="4988" href="#P25"></use><use x="670" y="5134" href="#P18"></use><use x="912" y="-167" href="#P25"></use><use x="1002" y="44" href="#P33"></use><use x="862" y="228" href="#P50"></use><use x="993" y="442" href="#P55"></use><use x="888" y="597" href="#P36"></use><use x="854" y="785" href="#P11"></use><use x="916" y="895" href="#P18"></use><use x="957" y="1172" href="#P9"></use><use x="909" y="1258" href="#P51"></use><use x="973" y="1519" href="#P7"></use><use x="961" y="1699" href="#P29"></use><use x="952" y="1867" href="#P27"></use><use x="988" y="2028" href="#P19"></use><use x="1006" y="2226" href="#P39"></use><use x="1032" y="2492" href="#P0"></use><use x="932" y="2538" href="#P23"></use><use x="1034" y="2699" href="#P51"></use><use x="878" y="3018" href="#P0"></use><use x="896" y="3143" href="#P53"></use><use x="918" y="3390" href="#P7"></use><use x="1021" y="3562" href="#P2"></use><use x="916" y="3702" href="#P43"></use><use x="838" y="3864" href="#P44"></use><use x="970" y="4026" href="#P14"></use><use x="868" y="4216" href="#P44"></use><use x="877" y="4484" href="#P19"></use><use x="987" y="4502" href="#P0"></use><use x="971" y="4853" href="#P36"></use><use x="860" y="4955" href="#P53"></use><use x="864" y="5229" href="#P29"></use><use x="1055" y="-220" href="#P2"></use><use x="1132" y="18" href="#P28"></use><use x="1170" y="206" href="#P24"></use><use x="1149" y="414" href="#P44"></use><use x="1136" y="576" href="#P47"></use><use x="1162" y="668" href="#P33"></use><use x="1058" y="936" href="#P21"></use><use x="1058" y="1152" href="#P48"></use><use x="1051" y="1304" href="#P11"></use><use x="1142" y="1515" href="#P27"></use><use x="1062" y="1643" href="#P36"></use><use x="1051" y="1889" href="#P47"></use><use x="1072" y="1993" href="#P23"></use><use x="1180" y="2301" href="#P13"></use><use x="1115" y="2431" href="#P54"></use><use x="1198" y="2612" href="#P7"></use><use x="1159" y="2736" href="#P20"></use><use x="1213" y="3042" href="#P14"></use><use x="1109" y="3172" href="#P45"></use><use x="1184" y="3324" href="#P10"></use><use x="1118" y="3579" href="#P33"></use><use x="1131" y="3773" href="#P18"></use><use x="1055" y="3868" href="#P50"></use><use x="1079" y="4158" href="#P34"></use><use x="1142" y="4192" href="#P29"></use><use x="1179" y="4499" href="#P7"></use><use x="1069" y="4605" href="#P0"></use><use x="1175" y="4760" href="#P48"></use><use x="1081" y="4984" href="#P27"></use><use x="1076" y="5257" href="#P48"></use><use x="1292" y="-133" href="#P34"></use><use x="1305" y="-35" href="#P9"></use><use x="1336" y="313" href="#P3"></use><use x="1369" y="472" href="#P7"></use><use x="1376" y="624" href="#P3"></use><use x="1204" y="802" href="#P36"></use><use x="1358" y="836" href="#P52"></use><use x="1343" y="1207" href="#P19"></use><use x="1233" y="1270" href="#P21"></use><use x="1246" y="1433" href="#P32"></use><use x="1240" y="1597" href="#P50"></use><use x="1388" y="1845" href="#P19"></use><use x="1302" y="2047" href="#P4"></use><use x="1295" y="2143" href="#P15"></use><use x="1210" y="2456" href="#P47"></use><use x="1209" y="2510" href="#P12"></use><use x="1302" y="2696" href="#P23"></use><use x="1384" y="2911" href="#P49"></use><use x="1352" y="3163" href="#P10"></use><use x="1377" y="3354" href="#P28"></use><use x="1404" y="3525" href="#P28"></use><use x="1272" y="3681" href="#P54"></use><use x="1359" y="3809" href="#P40"></use><use x="1367" y="4092" href="#P33"></use><use x="1300" y="4234" href="#P40"></use><use x="1233" y="4382" href="#P22"></use><use x="1242" y="4518" href="#P51"></use><use x="1347" y="4815" href="#P54"></use><use x="1295" y="4979" href="#P20"></use><use x="1233" y="5260" href="#P30"></use><use x="1488" y="-89" href="#P53"></use><use x="1461" y="-52" href="#P27"></use><use x="1477" y="238" href="#P17"></use><use x="1482" y="434" href="#P3"></use><use x="1555" y="470" href="#P49"></use><use x="1495" y="814" href="#P12"></use><use x="1463" y="884" href="#P18"></use><use x="1506" y="1197" href="#P42"></use><use x="1480" y="1261" href="#P45"></use><use x="1436" y="1431" href="#P52"></use><use x="1400" y="1644" href="#P7"></use><use x="1504" y="1929" href="#P9"></use><use x="1389" y="2019" href="#P21"></use><use x="1416" y="2138" href="#P40"></use><use x="1417" y="2382" href="#P33"></use><use x="1412" y="2531" href="#P18"></use><use x="1568" y="2843" href="#P34"></use><use x="1403" y="3011" href="#P46"></use><use x="1563" y="3197" href="#P50"></use><use x="1555" y="3410" href="#P36"></use><use x="1426" y="3561" href="#P8"></use><use x="1577" y="3682" href="#P38"></use><use x="1483" y="3864" href="#P45"></use><use x="1462" y="3987" href="#P43"></use><use x="1548" y="4337" href="#P37"></use><use x="1511" y="4454" href="#P44"></use><use x="1516" y="4675" href="#P17"></use><use x="1421" y="4747" href="#P9"></use><use x="1487" y="4904" href="#P14"></use><use x="1507" y="5207" href="#P35"></use><use x="1647" y="-167" href="#P29"></use><use x="1758" y="38" href="#P19"></use><use x="1632" y="214" href="#P42"></use><use x="1734" y="371" href="#P25"></use><use x="1589" y="501" href="#P42"></use><use x="1589" y="776" href="#P38"></use><use x="1672" y="912" href="#P36"></use><use x="1676" y="1216" href="#P32"></use><use x="1652" y="1285" href="#P36"></use><use x="1675" y="1475" href="#P27"></use><use x="1579" y="1685" href="#P22"></use><use x="1585" y="1787" href="#P13"></use><use x="1748" y="2049" href="#P29"></use><use x="1648" y="2161" href="#P23"></use><use x="1673" y="2460" href="#P30"></use><use x="1680" y="2676" href="#P39"></use><use x="1587" y="2698" href="#P55"></use><use x="1765" y="2914" href="#P23"></use><use x="1628" y="3211" href="#P35"></use><use x="1597" y="3287" href="#P0"></use><use x="1712" y="3531" href="#P33"></use><use x="1650" y="3653" href="#P39"></use><use x="1613" y="3920" href="#P11"></use><use x="1669" y="4011" href="#P4"></use><use x="1706" y="4280" href="#P32"></use><use x="1707" y="4483" href="#P42"></use><use x="1746" y="4635" href="#P29"></use><use x="1767" y="4766" href="#P28"></use><use x="1669" y="4874" href="#P36"></use><use x="1637" y="5245" href="#P41"></use><use x="1942" y="-120" href="#P28"></use><use x="1792" y="18" href="#P11"></use><use x="1778" y="136" href="#P1"></use><use x="1892" y="307" href="#P54"></use><use x="1834" y="524" href="#P43"></use><use x="1831" y="707" href="#P25"></use><use x="1895" y="890" href="#P8"></use><use x="1774" y="1086" href="#P7"></use><use x="1915" y="1295" href="#P26"></use><use x="1821" y="1511" href="#P17"></use><use x="1794" y="1712" href="#P48"></use><use x="1837" y="1934" href="#P33"></use><use x="1825" y="2050" href="#P12"></use><use x="1797" y="2289" href="#P51"></use><use x="1835" y="2358" href="#P37"></use><use x="1960" y="2515" href="#P8"></use><use x="1819" y="2726" href="#P15"></use><use x="1784" y="2960" href="#P32"></use><use x="1832" y="3175" href="#P8"></use><use x="1787" y="3249" href="#P39"></use><use x="1854" y="3579" href="#P9"></use><use x="1889" y="3648" href="#P5"></use><use x="1799" y="3834" href="#P6"></use><use x="1944" y="4087" href="#P15"></use><use x="1848" y="4135" href="#P1"></use><use x="1831" y="4536" href="#P21"></use><use x="1913" y="4664" href="#P32"></use><use x="1914" y="4876" href="#P19"></use><use x="1790" y="4953" href="#P24"></use><use x="1930" y="5078" href="#P2"></use><use x="2132" y="-123" href="#P34"></use><use x="2115" y="-13" href="#P14"></use><use x="2016" y="117" href="#P47"></use><use x="2060" y="380" href="#P6"></use><use x="1988" y="504" href="#P29"></use><use x="2112" y="805" href="#P48"></use><use x="1979" y="951" href="#P49"></use><use x="2121" y="1065" href="#P32"></use><use x="2044" y="1301" href="#P0"></use><use x="1998" y="1453" href="#P34"></use><use x="2119" y="1721" href="#P5"></use><use x="2013" y="1876" href="#P35"></use><use x="2036" y="2062" href="#P51"></use><use x="2077" y="2161" href="#P47"></use><use x="2106" y="2333" href="#P39"></use><use x="2114" y="2561" href="#P8"></use><use x="2036" y="2750" href="#P14"></use><use x="2081" y="2900" href="#P45"></use><use x="1959" y="3190" href="#P42"></use><use x="2070" y="3378" href="#P27"></use><use x="1984" y="3558" href="#P9"></use><use x="2090" y="3718" href="#P35"></use><use x="2109" y="3940" href="#P36"></use><use x="2014" y="3965" href="#P35"></use><use x="2076" y="4278" href="#P41"></use><use x="2058" y="4525" href="#P25"></use><use x="2014" y="4633" href="#P12"></use><use x="2063" y="4873" href="#P24"></use><use x="2127" y="4918" href="#P11"></use><use x="2097" y="5115" href="#P12"></use><use x="2283" y="-98" href="#P54"></use><use x="2221" y="108" href="#P10"></use><use x="2208" y="145" href="#P47"></use><use x="2275" y="454" href="#P29"></use><use x="2232" y="581" href="#P5"></use><use x="2249" y="698" href="#P21"></use><use x="2241" y="975" href="#P43"></use><use x="2240" y="1033" href="#P53"></use><use x="2158" y="1346" href="#P51"></use><use x="2135" y="1504" href="#P55"></use><use x="2253" y="1747" href="#P19"></use><use x="2288" y="1959" href="#P35"></use><use x="2292" y="2026" href="#P14"></use><use x="2244" y="2148" href="#P33"></use><use x="2284" y="2409" href="#P20"></use><use x="2305" y="2569" href="#P7"></use><use x="2183" y="2836" href="#P35"></use><use x="2206" y="3007" href="#P43"></use><use x="2175" y="3198" href="#P20"></use><use x="2276" y="3236" href="#P23"></use><use x="2154" y="3611" href="#P50"></use><use x="2162" y="3751" href="#P1"></use><use x="2237" y="3844" href="#P14"></use><use x="2167" y="3952" href="#P5"></use><use x="2213" y="4226" href="#P8"></use><use x="2204" y="4384" href="#P16"></use><use x="2134" y="4653" href="#P39"></use><use x="2283" y="4737" href="#P42"></use><use x="2309" y="4894" href="#P1"></use><use x="2290" y="5250" href="#P30"></use><use x="2397" y="-214" href="#P24"></use><use x="2386" y="-3" href="#P25"></use><use x="2453" y="267" href="#P25"></use><use x="2367" y="340" href="#P22"></use><use x="2374" y="465" href="#P31"></use><use x="2401" y="777" href="#P55"></use><use x="2368" y="945" href="#P38"></use><use x="2329" y="1149" href="#P46"></use><use x="2354" y="1235" href="#P27"></use><use x="2351" y="1520" href="#P13"></use><use x="2382" y="1705" href="#P31"></use><use x="2457" y="1950" href="#P39"></use><use x="2338" y="2068" href="#P16"></use><use x="2372" y="2160" href="#P16"></use><use x="2363" y="2496" href="#P38"></use><use x="2456" y="2635" href="#P26"></use><use x="2378" y="2716" href="#P31"></use><use x="2419" y="2871" href="#P0"></use><use x="2341" y="3154" href="#P9"></use><use x="2426" y="3257" href="#P7"></use><use x="2356" y="3583" href="#P52"></use><use x="2341" y="3667" href="#P16"></use><use x="2499" y="3886" href="#P22"></use><use x="2440" y="4097" href="#P10"></use><use x="2359" y="4239" href="#P41"></use><use x="2405" y="4482" href="#P33"></use><use x="2327" y="4717" href="#P55"></use><use x="2426" y="4857" href="#P53"></use><use x="2449" y="5022" href="#P33"></use><use x="2392" y="5076" href="#P23"></use><use x="2680" y="-162" href="#P1"></use><use x="2636" y="19" href="#P46"></use><use x="2659" y="229" href="#P17"></use><use x="2535" y="406" href="#P39"></use><use x="2571" y="659" href="#P38"></use><use x="2547" y="810" href="#P35"></use><use x="2604" y="1012" href="#P0"></use><use x="2507" y="1051" href="#P17"></use><use x="2678" y="1208" href="#P55"></use><use x="2570" y="1413" href="#P54"></use><use x="2629" y="1739" href="#P36"></use><use x="2639" y="1931" href="#P4"></use><use x="2677" y="2119" href="#P45"></use><use x="2515" y="2232" href="#P3"></use><use x="2608" y="2325" href="#P14"></use><use x="2608" y="2625" href="#P30"></use><use x="2605" y="2709" href="#P52"></use><use x="2542" y="2920" href="#P53"></use><use x="2640" y="3122" href="#P45"></use><use x="2545" y="3336" href="#P37"></use><use x="2571" y="3566" href="#P15"></use><use x="2645" y="3737" href="#P47"></use><use x="2518" y="3943" href="#P36"></use><use x="2654" y="4063" href="#P51"></use><use x="2560" y="4141" href="#P40"></use><use x="2507" y="4346" href="#P10"></use><use x="2675" y="4643" href="#P32"></use><use x="2621" y="4813" href="#P1"></use><use x="2500" y="4915" href="#P46"></use><use x="2628" y="5175" href="#P31"></use><use x="2708" y="-148" href="#P30"></use><use x="2813" y="-29" href="#P1"></use><use x="2757" y="120" href="#P49"></use><use x="2860" y="344" href="#P51"></use><use x="2723" y="476" href="#P18"></use><use x="2830" y="789" href="#P17"></use><use x="2720" y="1031" href="#P22"></use><use x="2719" y="1034" href="#P36"></use><use x="2799" y="1284" href="#P20"></use><use x="2696" y="1398" href="#P23"></use><use x="2684" y="1716" href="#P21"></use><use x="2822" y="1789" href="#P49"></use><use x="2702" y="2076" href="#P10"></use><use x="2702" y="2306" href="#P5"></use><use x="2835" y="2399" href="#P11"></use><use x="2822" y="2545" href="#P44"></use><use x="2733" y="2864" href="#P15"></use><use x="2858" y="3016" href="#P36"></use><use x="2831" y="3118" href="#P12"></use><use x="2848" y="3268" href="#P33"></use><use x="2795" y="3588" href="#P33"></use><use x="2768" y="3741" href="#P39"></use><use x="2786" y="3924" href="#P0"></use><use x="2803" y="4114" href="#P51"></use><use x="2698" y="4221" href="#P47"></use><use x="2715" y="4536" href="#P24"></use><use x="2689" y="4626" href="#P14"></use><use x="2751" y="4751" href="#P35"></use><use x="2717" y="5029" href="#P9"></use><use x="2713" y="5072" href="#P3"></use><use x="2998" y="-212" href="#P21"></use><use x="2901" y="96" href="#P12"></use><use x="2978" y="141" href="#P3"></use><use x="2950" y="423" href="#P53"></use><use x="3032" y="608" href="#P22"></use><use x="2910" y="667" href="#P12"></use><use x="2973" y="954" href="#P41"></use><use x="3029" y="1154" href="#P31"></use><use x="2907" y="1357" href="#P43"></use><use x="2990" y="1433" href="#P30"></use><use x="2984" y="1682" href="#P0"></use><use x="2964" y="1884" href="#P31"></use><use x="3006" y="2108" href="#P4"></use><use x="2958" y="2261" href="#P14"></use><use x="2995" y="2340" href="#P2"></use><use x="2883" y="2670" href="#P21"></use><use x="2917" y="2797" href="#P24"></use><use x="3015" y="2883" href="#P1"></use><use x="2917" y="3182" href="#P31"></use><use x="2962" y="3416" href="#P14"></use><use x="3014" y="3602" href="#P2"></use><use x="2880" y="3631" href="#P51"></use><use x="3048" y="3848" href="#P18"></use><use x="2964" y="3990" href="#P33"></use><use x="2905" y="4240" href="#P38"></use><use x="2912" y="4480" href="#P22"></use><use x="2943" y="4605" href="#P10"></use><use x="3048" y="4725" href="#P18"></use><use x="2973" y="5032" href="#P37"></use><use x="2930" y="5235" href="#P33"></use><use x="3112" y="-214" href="#P14"></use><use x="3058" y="95" href="#P35"></use><use x="3205" y="224" href="#P5"></use><use x="3109" y="337" href="#P3"></use><use x="3107" y="514" href="#P47"></use><use x="3212" y="712" href="#P14"></use><use x="3045" y="993" href="#P51"></use><use x="3046" y="1076" href="#P16"></use><use x="3169" y="1264" href="#P37"></use><use x="3222" y="1527" href="#P54"></use><use x="3058" y="1582" href="#P34"></use><use x="3054" y="1819" href="#P4"></use><use x="3125" y="2077" href="#P19"></use><use x="3077" y="2290" href="#P35"></use><use x="3214" y="2325" href="#P55"></use><use x="3201" y="2608" href="#P35"></use><use x="3221" y="2707" href="#P26"></use><use x="3200" y="2921" href="#P43"></use><use x="3165" y="3047" href="#P27"></use><use x="3178" y="3273" href="#P23"></use><use x="3140" y="3439" href="#P28"></use><use x="3112" y="3691" href="#P44"></use><use x="3087" y="3813" href="#P32"></use><use x="3144" y="4132" href="#P16"></use><use x="3086" y="4309" href="#P14"></use><use x="3192" y="4400" href="#P24"></use><use x="3077" y="4559" href="#P5"></use><use x="3172" y="4769" href="#P16"></use><use x="3053" y="5032" href="#P19"></use><use x="3146" y="5090" href="#P54"></use><use x="3359" y="-117" href="#P44"></use><use x="3376" y="84" href="#P11"></use><use x="3345" y="236" href="#P38"></use><use x="3389" y="364" href="#P13"></use><use x="3350" y="503" href="#P21"></use><use x="3401" y="728" href="#P25"></use><use x="3284" y="1027" href="#P48"></use><use x="3352" y="1220" href="#P36"></use><use x="3352" y="1361" href="#P53"></use><use x="3374" y="1488" href="#P18"></use><use x="3376" y="1747" href="#P20"></use><use x="3304" y="1819" href="#P12"></use><use x="3428" y="2024" href="#P15"></use><use x="3241" y="2241" href="#P27"></use><use x="3347" y="2424" href="#P3"></use><use x="3360" y="2622" href="#P41"></use><use x="3339" y="2807" href="#P46"></use><use x="3390" y="3041" href="#P14"></use><use x="3272" y="3198" href="#P3"></use><use x="3301" y="3276" href="#P3"></use><use x="3373" y="3484" href="#P8"></use><use x="3288" y="3767" href="#P14"></use><use x="3370" y="3864" href="#P42"></use><use x="3404" y="3958" href="#P18"></use><use x="3395" y="4240" href="#P28"></use><use x="3323" y="4523" href="#P14"></use><use x="3357" y="4661" href="#P34"></use><use x="3290" y="4732" href="#P30"></use><use x="3295" y="4976" href="#P8"></use><use x="3331" y="5094" href="#P9"></use><use x="3515" y="-165" href="#P41"></use><use x="3422" y="91" href="#P38"></use><use x="3546" y="168" href="#P40"></use><use x="3425" y="323" href="#P50"></use><use x="3479" y="551" href="#P16"></use><use x="3430" y="661" href="#P22"></use><use x="3427" y="1021" href="#P17"></use><use x="3410" y="1206" href="#P3"></use><use x="3582" y="1324" href="#P20"></use><use x="3591" y="1547" href="#P10"></use><use x="3580" y="1674" href="#P1"></use><use x="3472" y="1762" href="#P52"></use><use x="3559" y="2023" href="#P45"></use><use x="3526" y="2311" href="#P16"></use><use x="3458" y="2397" href="#P25"></use><use x="3556" y="2632" href="#P9"></use><use x="3600" y="2830" href="#P36"></use><use x="3494" y="3006" href="#P41"></use><use x="3581" y="3070" href="#P0"></use><use x="3476" y="3290" href="#P44"></use><use x="3465" y="3564" href="#P39"></use><use x="3439" y="3657" href="#P1"></use><use x="3481" y="3950" href="#P31"></use><use x="3476" y="4090" href="#P30"></use><use x="3530" y="4153" href="#P24"></use><use x="3544" y="4370" href="#P31"></use><use x="3538" y="4648" href="#P53"></use><use x="3509" y="4841" href="#P31"></use><use x="3469" y="4965" href="#P49"></use><use x="3487" y="5075" href="#P48"></use><use x="3741" y="-116" href="#P34"></use><use x="3611" y="139" href="#P6"></use><use x="3671" y="284" href="#P39"></use><use x="3778" y="450" href="#P45"></use><use x="3723" y="640" href="#P45"></use><use x="3644" y="680" href="#P31"></use><use x="3631" y="998" href="#P4"></use><use x="3654" y="1034" href="#P44"></use><use x="3724" y="1342" href="#P3"></use><use x="3641" y="1577" href="#P21"></use><use x="3729" y="1719" href="#P46"></use><use x="3657" y="1841" href="#P9"></use><use x="3717" y="1969" href="#P55"></use><use x="3641" y="2313" href="#P24"></use><use x="3703" y="2325" href="#P34"></use><use x="3685" y="2626" href="#P12"></use><use x="3657" y="2743" href="#P1"></use><use x="3649" y="3056" href="#P50"></use><use x="3729" y="3184" href="#P34"></use><use x="3645" y="3240" href="#P28"></use><use x="3679" y="3473" href="#P55"></use><use x="3769" y="3733" href="#P21"></use><use x="3782" y="3895" href="#P10"></use><use x="3630" y="4004" href="#P17"></use><use x="3727" y="4342" href="#P41"></use><use x="3753" y="4436" href="#P24"></use><use x="3679" y="4684" href="#P51"></use><use x="3738" y="4793" href="#P52"></use><use x="3638" y="4866" href="#P27"></use><use x="3602" y="5140" href="#P5"></use><use x="3817" y="-143" href="#P14"></use><use x="3949" y="84" href="#P3"></use><use x="3881" y="139" href="#P53"></use><use x="3826" y="388" href="#P1"></use><use x="3858" y="510" href="#P11"></use><use x="3909" y="766" href="#P36"></use><use x="3823" y="852" href="#P42"></use><use x="3968" y="1101" href="#P34"></use><use x="3939" y="1233" href="#P41"></use><use x="3875" y="1417" href="#P40"></use><use x="3787" y="1657" href="#P10"></use><use x="3885" y="1851" href="#P52"></use><use x="3883" y="1962" href="#P44"></use><use x="3891" y="2197" href="#P0"></use><use x="3826" y="2339" href="#P55"></use><use x="3934" y="2628" href="#P32"></use><use x="3800" y="2686" href="#P43"></use><use x="3823" y="2961" href="#P8"></use><use x="3802" y="3205" href="#P50"></use><use x="3814" y="3243" href="#P1"></use><use x="3918" y="3572" href="#P29"></use><use x="3787" y="3741" href="#P29"></use><use x="3966" y="3897" href="#P10"></use><use x="3819" y="3974" href="#P41"></use><use x="3848" y="4258" href="#P8"></use><use x="3847" y="4400" href="#P32"></use><use x="3791" y="4656" href="#P31"></use><use x="3865" y="4691" href="#P32"></use><use x="3871" y="4948" href="#P41"></use><use x="3957" y="5163" href="#P52"></use><use x="4071" y="-100" href="#P27"></use><use x="4056" y="112" href="#P39"></use><use x="4078" y="167" href="#P3"></use><use x="4014" y="491" href="#P26"></use><use x="4045" y="629" href="#P32"></use><use x="4022" y="759" href="#P29"></use><use x="4149" y="939" href="#P55"></use><use x="4080" y="1145" href="#P3"></use><use x="4163" y="1231" href="#P55"></use><use x="3976" y="1546" href="#P29"></use><use x="3980" y="1611" href="#P18"></use><use x="4012" y="1940" href="#P20"></use><use x="4102" y="2011" href="#P49"></use><use x="4066" y="2160" href="#P54"></use><use x="4010" y="2349" href="#P30"></use><use x="3998" y="2648" href="#P4"></use><use x="4133" y="2812" href="#P54"></use><use x="4123" y="2978" href="#P44"></use><use x="3983" y="3063" href="#P13"></use><use x="4037" y="3406" href="#P1"></use><use x="4051" y="3513" href="#P42"></use><use x="4033" y="3661" href="#P11"></use><use x="3987" y="3962" href="#P13"></use><use x="4075" y="4140" href="#P44"></use><use x="4112" y="4198" href="#P38"></use><use x="4036" y="4386" href="#P23"></use><use x="4092" y="4587" href="#P22"></use><use x="3996" y="4847" href="#P4"></use><use x="4065" y="4998" href="#P35"></use><use x="4093" y="5133" href="#P29"></use><use x="4263" y="-159" href="#P30"></use><use x="4315" y="43" href="#P5"></use><use x="4292" y="296" href="#P6"></use><use x="4269" y="374" href="#P5"></use><use x="4259" y="667" href="#P0"></use><use x="4314" y="729" href="#P44"></use><use x="4157" y="899" href="#P29"></use><use x="4300" y="1074" href="#P54"></use><use x="4253" y="1318" href="#P9"></use><use x="4308" y="1539" href="#P37"></use><use x="4198" y="1648" href="#P49"></use><use x="4302" y="1925" href="#P34"></use><use x="4188" y="2070" href="#P54"></use><use x="4197" y="2308" href="#P48"></use><use x="4196" y="2473" href="#P23"></use><use x="4191" y="2559" href="#P14"></use><use x="4323" y="2841" href="#P10"></use><use x="4138" y="2925" href="#P54"></use><use x="4179" y="3191" href="#P20"></use><use x="4308" y="3423" href="#P45"></use><use x="4343" y="3481" href="#P26"></use><use x="4256" y="3721" href="#P28"></use><use x="4211" y="3950" href="#P40"></use><use x="4306" y="4066" href="#P21"></use><use x="4158" y="4299" href="#P52"></use><use x="4277" y="4375" href="#P16"></use><use x="4300" y="4597" href="#P33"></use><use x="4307" y="4858" href="#P51"></use><use x="4249" y="4894" href="#P23"></use><use x="4214" y="5185" href="#P28"></use><use x="4407" y="-103" href="#P46"></use><use x="4385" y="-14" href="#P16"></use><use x="4516" y="236" href="#P31"></use><use x="4402" y="388" href="#P36"></use><use x="4396" y="683" href="#P8"></use><use x="4452" y="837" href="#P12"></use><use x="4480" y="914" href="#P23"></use><use x="4372" y="1045" href="#P0"></use><use x="4358" y="1365" href="#P23"></use><use x="4415" y="1517" href="#P39"></use><use x="4431" y="1753" href="#P33"></use><use x="4536" y="1776" href="#P51"></use><use x="4424" y="2123" href="#P20"></use><use x="4340" y="2167" href="#P36"></use><use x="4372" y="2380" href="#P11"></use><use x="4430" y="2669" href="#P24"></use><use x="4437" y="2846" href="#P39"></use><use x="4392" y="3037" href="#P22"></use><use x="4490" y="3224" href="#P25"></use><use x="4501" y="3298" href="#P33"></use><use x="4358" y="3539" href="#P32"></use><use x="4432" y="3701" href="#P45"></use><use x="4464" y="3898" href="#P11"></use><use x="4370" y="4021" href="#P21"></use><use x="4443" y="4262" href="#P38"></use><use x="4319" y="4464" href="#P5"></use><use x="4337" y="4654" href="#P55"></use><use x="4382" y="4782" href="#P34"></use><use x="4508" y="4966" href="#P16"></use><use x="4421" y="5103" href="#P3"></use><use x="4677" y="-148" href="#P32"></use><use x="4682" y="-62" href="#P35"></use><use x="4680" y="173" href="#P49"></use><use x="4611" y="414" href="#P54"></use><use x="4529" y="522" href="#P54"></use><use x="4692" y="684" href="#P53"></use><use x="4598" y="912" href="#P30"></use><use x="4590" y="1105" href="#P20"></use><use x="4646" y="1335" href="#P31"></use><use x="4575" y="1560" href="#P44"></use><use x="4672" y="1746" href="#P32"></use><use x="4688" y="1923" href="#P16"></use><use x="4557" y="2129" href="#P27"></use><use x="4717" y="2133" href="#P49"></use><use x="4583" y="2488" href="#P55"></use><use x="4702" y="2591" href="#P21"></use><use x="4686" y="2751" href="#P17"></use><use x="4711" y="3011" href="#P44"></use><use x="4654" y="3153" href="#P0"></use><use x="4542" y="3344" href="#P0"></use><use x="4602" y="3561" href="#P32"></use><use x="4633" y="3604" href="#P38"></use><use x="4617" y="3890" href="#P24"></use><use x="4667" y="3953" href="#P6"></use><use x="4624" y="4331" href="#P2"></use><use x="4555" y="4335" href="#P49"></use><use x="4716" y="4673" href="#P24"></use><use x="4645" y="4739" href="#P47"></use><use x="4629" y="5033" href="#P4"></use><use x="4609" y="5245" href="#P1"></use><use x="4721" y="-82" href="#P3"></use><use x="4720" y="4" href="#P40"></use><use x="4847" y="142" href="#P18"></use><use x="4876" y="376" href="#P30"></use><use x="4762" y="467" href="#P47"></use><use x="4736" y="696" href="#P45"></use><use x="4779" y="953" href="#P32"></use><use x="4804" y="1171" href="#P13"></use><use x="4780" y="1321" href="#P1"></use><use x="4783" y="1491" href="#P3"></use><use x="4798" y="1743" href="#P38"></use><use x="4878" y="1792" href="#P11"></use><use x="4864" y="1979" href="#P24"></use><use x="4853" y="2308" href="#P30"></use><use x="4851" y="2483" href="#P10"></use><use x="4870" y="2626" href="#P13"></use><use x="4883" y="2843" href="#P5"></use><use x="4827" y="2871" href="#P49"></use><use x="4823" y="3066" href="#P11"></use><use x="4717" y="3384" href="#P45"></use><use x="4773" y="3487" href="#P22"></use><use x="4726" y="3728" href="#P2"></use><use x="4772" y="3780" href="#P40"></use><use x="4882" y="4019" href="#P37"></use><use x="4758" y="4216" href="#P37"></use><use x="4762" y="4398" href="#P21"></use><use x="4903" y="4598" href="#P45"></use><use x="4708" y="4842" href="#P19"></use><use x="4771" y="5050" href="#P39"></use><use x="4705" y="5176" href="#P8"></use><use x="4885" y="-51" href="#P21"></use><use x="5019" y="131" href="#P5"></use><use x="4925" y="204" href="#P1"></use><use x="4886" y="398" href="#P36"></use><use x="5066" y="485" href="#P39"></use><use x="5058" y="827" href="#P38"></use><use x="5082" y="891" href="#P17"></use><use x="4892" y="1168" href="#P6"></use><use x="4938" y="1378" href="#P1"></use><use x="5044" y="1547" href="#P52"></use><use x="4882" y="1695" href="#P35"></use><use x="4944" y="1886" href="#P14"></use><use x="4940" y="2027" href="#P41"></use><use x="4947" y="2284" href="#P19"></use><use x="4888" y="2406" href="#P7"></use><use x="4974" y="2567" href="#P15"></use><use x="4984" y="2797" href="#P30"></use><use x="4903" y="2952" href="#P33"></use><use x="4983" y="3046" href="#P49"></use><use x="4992" y="3235" href="#P50"></use><use x="4968" y="3522" href="#P55"></use><use x="4999" y="3745" href="#P42"></use><use x="4967" y="3799" href="#P0"></use><use x="5087" y="4138" href="#P45"></use><use x="5080" y="4171" href="#P19"></use><use x="5023" y="4460" href="#P28"></use><use x="5036" y="4635" href="#P42"></use><use x="5038" y="4845" href="#P0"></use><use x="5010" y="4940" href="#P28"></use><use x="5036" y="5097" href="#P17"></use><use x="5101" y="-206" href="#P2"></use><use x="5188" y="68" href="#P17"></use><use x="5220" y="309" href="#P24"></use><use x="5209" y="363" href="#P15"></use><use x="5152" y="633" href="#P5"></use><use x="5123" y="690" href="#P19"></use><use x="5179" y="904" href="#P0"></use><use x="5147" y="1054" href="#P19"></use><use x="5185" y="1309" href="#P51"></use><use x="5151" y="1408" href="#P51"></use><use x="5146" y="1597" href="#P24"></use><use x="5228" y="1947" href="#P21"></use><use x="5229" y="2013" href="#P54"></use><use x="5178" y="2285" href="#P19"></use><use x="5137" y="2424" href="#P22"></use><use x="5047" y="2674" href="#P11"></use><use x="5076" y="2825" href="#P37"></use><use x="5107" y="2900" href="#P3"></use><use x="5084" y="3128" href="#P21"></use><use x="5115" y="3287" href="#P33"></use><use x="5186" y="3445" href="#P0"></use><use x="5194" y="3752" href="#P42"></use><use x="5221" y="3800" href="#P53"></use><use x="5155" y="4071" href="#P51"></use><use x="5192" y="4213" href="#P48"></use><use x="5200" y="4382" href="#P16"></use><use x="5200" y="4664" href="#P43"></use><use x="5146" y="4824" href="#P48"></use><use x="5198" y="4923" href="#P51"></use><use x="5179" y="5243" href="#P9"></use></g></svg>